<svg width="44" height="62" viewBox="0 0 44 62" fill="none" xmlns="http://www.w3.org/2000/svg">
<path fill-rule="evenodd" clip-rule="evenodd" d="M39.6978 31.5872H37.1455V5.43619C37.1455 2.50645 34.7622 0.123192 31.8325 0.123192H12.1675C9.23776 0.123192 6.8545 2.50645 6.8545 5.43619V31.5872H4.30219C2.45644 31.5872 0.955002 33.0886 0.955002 34.9337V42.7997C0.955002 44.6447 2.45644 46.1462 4.30219 46.1462H10.4004L6.8959 60.1629C6.71098 60.9025 7.16086 61.6519 7.90054 61.8368C8.01301 61.8651 8.12548 61.8782 8.23588 61.8782C8.85412 61.8782 9.41647 61.46 9.57379 60.8328L13.2453 46.1462H30.7554L34.4269 60.8328C34.5842 61.4594 35.1466 61.8782 35.7648 61.8782C35.8759 61.8782 35.9884 61.8651 36.1002 61.8368C36.8398 61.6519 37.289 60.9025 37.1048 60.1629L33.6003 46.1455H39.6985C41.5443 46.1455 43.0457 44.6441 43.0457 42.799V34.933C43.045 33.0879 41.5436 31.5872 39.6978 31.5872ZM9.6145 5.4355C9.6145 4.0279 10.7599 2.8825 12.1675 2.8825H31.8325C33.2408 2.8825 34.3855 4.0279 34.3855 5.4355V31.5865H9.6145V5.4355ZM39.6978 43.3862C40.0221 43.3862 40.285 43.1233 40.285 42.7997H40.2857V34.933C40.2857 34.6094 40.0221 34.3465 39.6985 34.3465H4.30219C3.97789 34.3465 3.715 34.6094 3.715 34.933V42.7997C3.715 43.1233 3.97858 43.3862 4.30219 43.3862H39.6978Z" fill="#000A1E"/>
</svg>
